<svg xmlns="http://www.w3.org/2000/svg" width="67" height="105" viewBox="0 0 67 105" fill="none">
  <path d="M 65.205 109.127 C 67.484 110.118 70.135 109.074 71.127 106.795 C 72.118 104.516 71.074 101.865 68.795 100.873 L 67 105 L 65.205 109.127 Z M 4.468 -0.539 C 4.17 -3.007 1.928 -4.765 -0.539 -4.468 C -3.007 -4.17 -4.765 -1.928 -4.468 0.539 L 0 0 L 4.468 -0.539 Z M 67 105 L 68.795 100.873 C 45.215 90.617 30.638 76.581 21.203 59.681 C 11.688 42.641 7.237 22.402 4.468 -0.539 L 0 0 L -4.468 0.539 C -1.654 23.848 2.968 45.484 13.344 64.069 C 23.799 82.794 39.931 98.133 65.205 109.127 L 67 105 Z" fill="#0a0a0a" fill-rule="nonzero"></path>
</svg>
